<?xml version="1.0" encoding="UTF-8"?>
<svg version="1.1" xmlns="http://www.w3.org/2000/svg" width="299" height="69">
<path d="M0 0 C1.91110817 -0.0049926 1.91110817 -0.0049926 3.86082458 -0.01008606 C6.54095996 -0.01512505 9.22099369 -0.01793071 11.90112305 -0.01733398 C15.31236703 -0.01723216 18.72340386 -0.03092707 22.13459873 -0.04810619 C25.42305775 -0.06197507 28.71151574 -0.0613164 32 -0.0625 C33.21273087 -0.06968552 34.42546173 -0.07687103 35.67494202 -0.08427429 C52.15427621 -0.04012012 52.15427621 -0.04012012 56.43359375 4.10546875 C58.58160428 8.53574047 58.61039652 12.55925614 58.63671875 17.37890625 C58.64241882 18.1840567 58.6481189 18.98920715 58.6539917 19.8187561 C58.66343311 21.52173553 58.66997227 23.22473315 58.67382812 24.92773438 C58.68353176 27.52636748 58.71456159 30.12420878 58.74609375 32.72265625 C58.75262442 34.37890156 58.75787464 36.03515252 58.76171875 37.69140625 C58.77406555 38.46551849 58.78641235 39.23963074 58.7991333 40.03720093 C58.78027811 44.62805971 58.25488642 47.51615496 55.43359375 51.16796875 C55.04840576 51.76134033 54.66321777 52.35471191 54.26635742 52.96606445 C51.17128981 54.99577244 47.6833758 54.48300001 44.109375 54.3984375 C42.42382931 54.39633694 40.73828121 54.39573413 39.05273438 54.39648438 C36.40361703 54.38203776 33.75629361 54.35567545 31.10766602 54.30200195 C20.92214752 53.7842229 20.92214752 53.7842229 11.53735352 56.91455078 C9.55804952 58.8985905 8.00269041 60.85511682 6.43359375 63.16796875 C2.47151542 66.85362302 2.13328899 67.16796875 -3.56640625 67.16796875 C-3.89640625 63.20796875 -4.22640625 59.24796875 -4.56640625 55.16796875 C-5.87996094 55.15378906 -7.19351562 55.13960937 -8.546875 55.125 C-10.28258676 55.07808887 -12.01826277 55.02984154 -13.75390625 54.98046875 C-14.61822266 54.97466797 -15.48253906 54.96886719 -16.37304688 54.96289062 C-20.91334868 54.80632849 -22.95950371 54.65053786 -26.6171875 51.7421875 C-29.9126313 47.39008837 -29.75714982 43.95465844 -29.8046875 38.65234375 C-29.81275925 37.80375793 -29.82083099 36.95517212 -29.82914734 36.08087158 C-29.84299066 34.28196253 -29.85371171 32.48302718 -29.86157227 30.68408203 C-29.87875239 27.94252147 -29.92263109 25.20217719 -29.96679688 22.4609375 C-29.97692686 20.71224844 -29.985442 18.96354914 -29.9921875 17.21484375 C-30.00969559 16.39900818 -30.02720367 15.58317261 -30.04524231 14.74261475 C-30.02512175 9.42012073 -29.11161899 6.38675129 -25.56640625 2.16796875 C-18.3976184 -1.41642518 -7.79182272 0.00716187 0 0 Z " fill="#7B56D8" transform="translate(31.56640625,0.83203125)"/>
<path d="M0 0 C3 0.125 3 0.125 4 1.125 C4.23481693 3.30792774 4.41363323 5.49703174 4.5625 7.6875 C4.64628906 8.88503906 4.73007813 10.08257812 4.81640625 11.31640625 C4.87699219 12.24324219 4.93757812 13.17007812 5 14.125 C5.55171875 13.30644531 6.1034375 12.48789062 6.671875 11.64453125 C9 9.125 9 9.125 11.578125 8.63671875 C12.90070313 8.72373047 12.90070313 8.72373047 14.25 8.8125 C15.58804688 8.88017578 15.58804688 8.88017578 16.953125 8.94921875 C17.62859375 9.00722656 18.3040625 9.06523437 19 9.125 C19.13921875 8.49851562 19.2784375 7.87203125 19.421875 7.2265625 C20.36030678 3.81523615 22.18502079 2.59070241 25.1875 0.875 C30.09945372 -0.43485433 34.32484843 0.32384056 38.875 2.5 C41 4.125 41 4.125 43 7.125 C43.125 9.8125 43.125 9.8125 43 12.125 C35.61538462 12.61730769 35.61538462 12.61730769 32.5 10.125 C32.005 9.465 31.51 8.805 31 8.125 C30.01 8.455 29.02 8.785 28 9.125 C28 9.785 28 10.445 28 11.125 C28.81984375 11.35574219 29.6396875 11.58648437 30.484375 11.82421875 C39.18329466 14.45678654 39.18329466 14.45678654 42.75 17.375 C44.43087651 21.07292832 44.95802015 24.13995819 44 28.125 C41.82425584 30.81605198 40.08934144 32.58032928 37 34.125 C35.06640414 34.27351844 33.12657903 34.34630833 31.1875 34.375 C30.14980469 34.40078125 29.11210937 34.4265625 28.04296875 34.453125 C24.57417855 34.07908344 22.77889007 33.20068054 20 31.125 C17.70986347 27.6897952 17.82157027 26.139669 18 22.125 C20.64 22.125 23.28 22.125 26 22.125 C26.33 23.445 26.66 24.765 27 26.125 C29.31 26.125 31.62 26.125 34 26.125 C34.495 24.64 34.495 24.64 35 23.125 C34.18015625 22.88265625 33.3603125 22.6403125 32.515625 22.390625 C31.43796875 22.05546875 30.3603125 21.7203125 29.25 21.375 C28.18265625 21.05015625 27.1153125 20.7253125 26.015625 20.390625 C22.82358182 19.05095921 21.13055362 17.83473324 19 15.125 C19 14.135 19 13.145 19 12.125 C16.69 14.105 14.38 16.085 12 18.125 C13.36031932 22.20595797 15.38130412 25.09430897 18.07421875 28.37890625 C19 30.125 19 30.125 18.64453125 32.33984375 C18.32548828 33.22349609 18.32548828 33.22349609 18 34.125 C14.75 34.4375 14.75 34.4375 11 34.125 C8.14528344 31.42053168 6.57894956 29.03290955 6 25.125 C5.34 25.125 4.68 25.125 4 25.125 C4.020625 26.424375 4.04125 27.72375 4.0625 29.0625 C4.08399454 30.41665633 4.07148199 31.77256083 4 33.125 C3 34.125 3 34.125 0 34.25 C-3 34.125 -3 34.125 -4 33.125 C-4.1007812 30.76101532 -4.13973215 28.42688689 -4.1328125 26.0625 C-4.13376923 25.35601318 -4.13472595 24.64952637 -4.13571167 23.92163086 C-4.13639333 22.42529207 -4.13454005 20.92895033 -4.13037109 19.43261719 C-4.12502257 17.13469843 -4.13031651 14.83697514 -4.13671875 12.5390625 C-4.13605797 11.08854123 -4.1347768 9.63802009 -4.1328125 8.1875 C-4.13483673 7.4958374 -4.13686096 6.8041748 -4.13894653 6.09155273 C-4.10966675 0.17123611 -4.10966675 0.17123611 0 0 Z " fill="#E2E0E1" transform="translate(161,15.875)"/>
<path d="M0 0 C2.01048992 3.77972104 2.27382919 6.67960558 2.5625 10.9375 C3.2225 9.9475 3.8825 8.9575 4.5625 7.9375 C6.91015625 7.27734375 6.91015625 7.27734375 9.625 6.875 C12.27646495 6.51460741 12.27646495 6.51460741 14.5625 5.9375 C14.8925 5.2775 15.2225 4.6175 15.5625 3.9375 C14.881875 4.2675 14.20125 4.5975 13.5 4.9375 C10.05409762 6.11057315 7.17852578 6.07930493 3.5625 5.9375 C3.19681953 1.42744083 3.19681953 1.42744083 4.76953125 -0.6796875 C8.15860184 -3.2934805 12.41241596 -3.0625 16.5625 -3.0625 C19.58194432 -2.35582154 20.94443205 -1.6416581 23.17578125 0.44921875 C25.2839131 4.23197928 24.91998687 7.81005054 24.8125 12.0625 C24.80734375 12.88621094 24.8021875 13.70992187 24.796875 14.55859375 C24.71741071 20.62767857 24.71741071 20.62767857 23.5625 22.9375 C20.83166098 23.07298815 18.10758193 23.17179855 15.375 23.25 C14.60607422 23.29189453 13.83714844 23.33378906 13.04492188 23.37695312 C8.59621827 23.47241887 7.08695124 23.37062555 3.51171875 20.41796875 C2.54685547 19.19013672 2.54685547 19.19013672 1.5625 17.9375 C0.7375 18.7625 -0.0875 19.5875 -0.9375 20.4375 C-3.60025632 22.6989318 -5.32190321 23.28105513 -8.8125 23.25 C-10.00875 23.146875 -11.205 23.04375 -12.4375 22.9375 C-12.6540625 24.6390625 -12.6540625 24.6390625 -12.875 26.375 C-13.4375 29.9375 -13.4375 29.9375 -14.4375 30.9375 C-17.4375 31.0625 -17.4375 31.0625 -20.4375 30.9375 C-21.4375 29.9375 -21.4375 29.9375 -21.55102539 26.88647461 C-21.55086634 25.53758729 -21.54517612 24.18869386 -21.53515625 22.83984375 C-21.5337413 22.13098526 -21.53232635 21.42212677 -21.53086853 20.69178772 C-21.52525443 18.41948288 -21.51269963 16.14727525 -21.5 13.875 C-21.49498681 12.33789204 -21.49042359 10.80078255 -21.48632812 9.26367188 C-21.47528042 5.48824358 -21.45800641 1.71288829 -21.4375 -2.0625 C-19.69694167 -2.23510175 -17.95597263 -2.40356455 -16.21484375 -2.5703125 C-15.24538818 -2.6645752 -14.27593262 -2.75883789 -13.27709961 -2.85595703 C-8.20279056 -3.22504528 -4.07460276 -3.44774079 0 0 Z M-11.4375 3.9375 C-13.59455515 5.6939331 -13.59455515 5.6939331 -13.703125 7.8125 C-13.69796875 8.51375 -13.6928125 9.215 -13.6875 9.9375 C-13.69265625 10.63875 -13.6978125 11.34 -13.703125 12.0625 C-13.59455515 14.1810669 -13.59455515 14.1810669 -11.4375 15.9375 C-8.83469432 15.61708603 -8.83469432 15.61708603 -6.4375 14.9375 C-5.51856696 11.34530721 -5.18604614 9.51584388 -6.6875 6.0625 C-7.265 5.36125 -7.8425 4.66 -8.4375 3.9375 C-9.4275 3.9375 -10.4175 3.9375 -11.4375 3.9375 Z M9.5625 13.9375 C10.5525 14.9275 11.5425 15.9175 12.5625 16.9375 C13.5525 16.2775 14.5425 15.6175 15.5625 14.9375 C15.5625 13.9475 15.5625 12.9575 15.5625 11.9375 C13.09971199 11.9375 11.71025881 12.79202863 9.5625 13.9375 Z " fill="#E9E8E9" transform="translate(227.4375,27.0625)"/>
<path d="M0 0 C1.94048456 1.45536342 3.62525774 2.89173224 5.25 4.6875 C5.889375 3.883125 6.52875 3.07875 7.1875 2.25 C11.14813891 -1.06400399 14.17825495 -1.47848438 19.25 -1.3125 C22.30029873 -0.58308074 23.7240389 0.19910755 26 2.3125 C28.88950373 7.80255708 28.52508516 13.77574154 27.25 19.6875 C25.20374069 22.75688896 24.54833752 23.42480907 21.25 24.6875 C16.37461435 25.36926124 12.47698357 25.45436473 8.25 22.8125 C7.59 22.11125 6.93 21.41 6.25 20.6875 C5.59 20.0275 4.93 19.3675 4.25 18.6875 C3.445625 19.491875 2.64125 20.29625 1.8125 21.125 C-1.93417047 24.87167047 -1.93417047 24.87167047 -6.5 25 C-10.23290476 24.97329825 -11.5381884 24.81718057 -14.8125 22.8125 C-17.9994682 19.31711552 -17.93658592 17.04121909 -18 12.375 C-18.02578125 11.24449219 -18.0515625 10.11398438 -18.078125 8.94921875 C-17.71779897 5.36740643 -16.89544626 3.5446568 -14.75 0.6875 C-10.04015062 -2.05991214 -4.92567296 -2.35088937 0 0 Z M-9.75 6.6875 C-10.83942909 11.45709797 -10.83942909 11.45709797 -9.8125 16.125 C-9.2865625 16.8984375 -9.2865625 16.8984375 -8.75 17.6875 C-7.1 17.3575 -5.45 17.0275 -3.75 16.6875 C-3.42 15.6975 -3.09 14.7075 -2.75 13.6875 C-0.44 13.6875 1.87 13.6875 4.25 13.6875 C4.25 12.3675 4.25 11.0475 4.25 9.6875 C1.94 9.6875 -0.37 9.6875 -2.75 9.6875 C-3.41 8.3675 -4.07 7.0475 -4.75 5.6875 C-7.6754644 5.4638932 -7.6754644 5.4638932 -9.75 6.6875 Z M14.25 5.6875 C13.92 6.6775 13.59 7.6675 13.25 8.6875 C15.23 8.6875 17.21 8.6875 19.25 8.6875 C18.92 7.6975 18.59 6.7075 18.25 5.6875 C16.93 5.6875 15.61 5.6875 14.25 5.6875 Z M13.25 14.6875 C13.58 15.6775 13.91 16.6675 14.25 17.6875 C15.9 17.6875 17.55 17.6875 19.25 17.6875 C19.58 16.6975 19.91 15.7075 20.25 14.6875 C17.94 14.6875 15.63 14.6875 13.25 14.6875 Z " fill="#DEDDDE" transform="translate(270.75,25.3125)"/>
<path d="M0 0 C1.2684375 0.06574219 1.2684375 0.06574219 2.5625 0.1328125 C6.1526681 1.22597266 7.15918645 2.61882409 9 5.875 C9.48777068 8.95765238 9.42427749 11.9501179 9.3125 15.0625 C9.30283203 15.88169922 9.29316406 16.70089844 9.28320312 17.54492188 C9.16980325 23.5353935 9.16980325 23.5353935 8 25.875 C5.26916098 26.01048815 2.54508193 26.10929855 -0.1875 26.1875 C-0.95642578 26.22939453 -1.72535156 26.27128906 -2.51757812 26.31445312 C-6.90714937 26.40864993 -8.46286038 26.31664813 -11.98828125 23.41796875 C-12.65214844 22.57878906 -13.31601563 21.73960938 -14 20.875 C-14.33 20.545 -14.66 20.215 -15 19.875 C-15.07271741 17.52186445 -15.08370868 15.16666332 -15.0625 12.8125 C-15.05347656 11.52214844 -15.04445312 10.23179688 -15.03515625 8.90234375 C-15.02355469 7.90332031 -15.01195312 6.90429688 -15 5.875 C-14.67 5.875 -14.34 5.875 -14 5.875 C-13.67 8.515 -13.34 11.155 -13 13.875 C-12.34 12.885 -11.68 11.895 -11 10.875 C-8.65234375 10.21484375 -8.65234375 10.21484375 -5.9375 9.8125 C-3.28603505 9.45210741 -3.28603505 9.45210741 -1 8.875 C-0.67 8.215 -0.34 7.555 0 6.875 C-0.680625 7.205 -1.36125 7.535 -2.0625 7.875 C-5.50840238 9.04807315 -8.38397422 9.01680493 -12 8.875 C-12.36407767 4.38470874 -12.36407767 4.38470874 -10.75 2.125 C-7.39169627 -0.27378838 -4.0209433 -0.28195639 0 0 Z M-6 16.875 C-5.01 17.865 -4.02 18.855 -3 19.875 C-2.01 19.215 -1.02 18.555 0 17.875 C0 16.885 0 15.895 0 14.875 C-2.46278801 14.875 -3.85224119 15.72952863 -6 16.875 Z " fill="#E1E0E1" transform="translate(243,24.125)"/>
<path d="M0 0 C2.63235241 1.50420138 3.08043814 2.47018154 4.1875 5.25 C4.43041992 7.43237305 4.43041992 7.43237305 4.41796875 9.76171875 C4.41603516 10.60154297 4.41410156 11.44136719 4.41210938 12.30664062 C4.39374023 13.60891602 4.39374023 13.60891602 4.375 14.9375 C4.37435547 15.81728516 4.37371094 16.69707031 4.37304688 17.60351562 C4.32790057 24.10959943 4.32790057 24.10959943 3.1875 25.25 C0.40127886 25.43061582 -2.3365267 25.52813098 -5.125 25.5625 C-5.89779297 25.59150391 -6.67058594 25.62050781 -7.46679688 25.65039062 C-11.21947119 25.69233797 -13.19075261 25.68638171 -16.328125 23.484375 C-18.76659219 19.81384017 -18.29544842 17.59653578 -17.8125 13.25 C-15.58222313 10.15078409 -13.29280911 9.6817405 -9.625 9.0625 C-8.72394531 8.90394531 -7.82289063 8.74539062 -6.89453125 8.58203125 C-6.20746094 8.47246094 -5.52039063 8.36289062 -4.8125 8.25 C-6.75853274 7.65929986 -6.75853274 7.65929986 -8.8125 7.25 C-9.1425 7.58 -9.4725 7.91 -9.8125 8.25 C-12.14547433 8.29092937 -14.47955225 8.29241723 -16.8125 8.25 C-16.6875 5.4375 -16.6875 5.4375 -15.8125 2.25 C-10.75947118 -1.3593063 -5.89938557 -1.57316949 0 0 Z M-9.8125 15.25 C-9.4825 16.57 -9.1525 17.89 -8.8125 19.25 C-7.4925 18.92 -6.1725 18.59 -4.8125 18.25 C-4.4825 16.93 -4.1525 15.61 -3.8125 14.25 C-5.96884036 14.25 -7.73696352 14.6965236 -9.8125 15.25 Z " fill="#E4E3E4" transform="translate(140.8125,24.75)"/>
<path d="M0 0 C1.99954746 -0.04254356 4.00041636 -0.04080783 6 0 C8.05922402 2.05922402 7.41427579 6.21708124 7.5625 9.0625 C7.60568359 9.82111328 7.64886719 10.57972656 7.69335938 11.36132812 C7.79973633 13.24065438 7.90039934 15.12030244 8 17 C8.43570313 16.4225 8.87140625 15.845 9.3203125 15.25 C14.24528302 9.10977702 14.24528302 9.10977702 18.4375 8.5 C19.283125 8.665 20.12875 8.83 21 9 C21 12 21 12 18.5 14.6875 C17.675 15.450625 16.85 16.21375 16 17 C17.36031932 21.08095797 19.38130412 23.96930897 22.07421875 27.25390625 C23 29 23 29 22.64453125 31.21484375 C22.43183594 31.80394531 22.21914062 32.39304688 22 33 C18.75 33.3125 18.75 33.3125 15 33 C12.14528344 30.29553168 10.57894956 27.90790955 10 24 C9.34 24 8.68 24 8 24 C8.020625 25.299375 8.04125 26.59875 8.0625 27.9375 C8.08399454 29.29165633 8.07148199 30.64756083 8 32 C7 33 7 33 4 33.125 C1 33 1 33 0 32 C-0.0883967 29.6243148 -0.11530305 27.27791326 -0.09765625 24.90234375 C-0.0962413 24.19348526 -0.09482635 23.48462677 -0.09336853 22.75428772 C-0.08775443 20.48198288 -0.07519963 18.20977525 -0.0625 15.9375 C-0.05748681 14.40039204 -0.05292359 12.86328255 -0.04882812 11.32617188 C-0.03778042 7.55074358 -0.02050641 3.77538829 0 0 Z " fill="#E7E7E7" transform="translate(157,17)"/>
<path d="M0 0 C4.31248609 -0.02886537 8.62494762 -0.04675255 12.9375 -0.0625 C14.16919922 -0.07087891 15.40089844 -0.07925781 16.66992188 -0.08789062 C17.83974609 -0.09111328 19.00957031 -0.09433594 20.21484375 -0.09765625 C21.84087524 -0.10551147 21.84087524 -0.10551147 23.49975586 -0.11352539 C26 0 26 0 27 1 C27.04080783 2.99958364 27.04254356 5.00045254 27 7 C24.03 7 21.06 7 18 7 C18.00785522 8.07483643 18.00785522 8.07483643 18.01586914 9.17138672 C18.03660667 12.40591562 18.04964984 15.64043056 18.0625 18.875 C18.07087891 20.00292969 18.07925781 21.13085938 18.08789062 22.29296875 C18.09272461 23.90751953 18.09272461 23.90751953 18.09765625 25.5546875 C18.10551147 27.04718018 18.10551147 27.04718018 18.11352539 28.56982422 C18 31 18 31 17 33 C14.69 33 12.38 33 10 33 C8.69524382 30.39048764 8.88698428 28.47298715 8.90234375 25.5546875 C8.90556641 24.47832031 8.90878906 23.40195312 8.91210938 22.29296875 C8.92048828 21.16503906 8.92886719 20.03710938 8.9375 18.875 C8.94201172 17.73933594 8.94652344 16.60367188 8.95117188 15.43359375 C8.96298385 12.62234362 8.97945493 9.8111977 9 7 C6.03 7 3.06 7 0 7 C0 4.69 0 2.38 0 0 Z " fill="#E1E0E1" transform="translate(100,17)"/>
<path d="M0 0 C1.91110817 -0.0049926 1.91110817 -0.0049926 3.86082458 -0.01008606 C6.54095996 -0.01512505 9.22099369 -0.01793071 11.90112305 -0.01733398 C15.31236703 -0.01723216 18.72340386 -0.03092707 22.13459873 -0.04810619 C25.42305775 -0.06197507 28.71151574 -0.0613164 32 -0.0625 C33.21273087 -0.06968552 34.42546173 -0.07687103 35.67494202 -0.08427429 C52.15427621 -0.04012012 52.15427621 -0.04012012 56.43359375 4.10546875 C58.58160428 8.53574047 58.61039652 12.55925614 58.63671875 17.37890625 C58.64241882 18.1840567 58.6481189 18.98920715 58.6539917 19.8187561 C58.66343311 21.52173553 58.66997227 23.22473315 58.67382812 24.92773438 C58.68353176 27.52636748 58.71456159 30.12420878 58.74609375 32.72265625 C58.75262442 34.37890156 58.75787464 36.03515252 58.76171875 37.69140625 C58.77406555 38.46551849 58.78641235 39.23963074 58.7991333 40.03720093 C58.78036355 44.60725715 58.19469014 47.49106316 55.43359375 51.16796875 C55.10359375 50.17796875 54.77359375 49.18796875 54.43359375 48.16796875 C55.09359375 48.16796875 55.75359375 48.16796875 56.43359375 48.16796875 C56.41418725 42.54388828 56.3625132 36.92137556 56.28100586 31.29785156 C56.25781899 29.38517806 56.24342852 27.47237676 56.23803711 25.55957031 C56.22875238 22.80843401 56.18777448 20.05930963 56.140625 17.30859375 C56.14455765 16.45428772 56.1484903 15.59998169 56.15254211 14.7197876 C56.13289902 13.91925964 56.11325592 13.11873169 56.09301758 12.29394531 C56.08302483 11.24137543 56.08302483 11.24137543 56.0728302 10.1675415 C55.0443897 6.95051345 53.27167244 5.89679822 50.43359375 4.16796875 C47.02199118 3.58486499 47.02199118 3.58486499 43.24414062 3.69799805 C42.5394313 3.69580765 41.83472198 3.69361725 41.10865784 3.69136047 C38.78940189 3.68905726 36.47142952 3.71526161 34.15234375 3.7421875 C32.53479413 3.74711443 30.9172388 3.75041134 29.29968262 3.75215149 C25.91363234 3.75978261 22.52800611 3.78031427 19.14208984 3.8112793 C14.80776943 3.85085331 10.47372456 3.86889012 6.13924408 3.87858868 C1.99774022 3.88857722 -2.14369705 3.90844452 -6.28515625 3.9296875 C-7.46628746 3.93478112 -7.46628746 3.93478112 -8.67127991 3.93997765 C-10.90658405 3.95159611 -13.14171817 3.97012392 -15.37695312 3.9909668 C-16.6476062 4.000811 -17.91825928 4.01065521 -19.22741699 4.02079773 C-22.13498439 4.14895318 -24.74257767 4.49468508 -27.56640625 5.16796875 C-25.89583375 2.81398023 -24.48173252 1.36075086 -21.59950256 0.75370789 C-14.39585478 0.12772076 -7.22874845 0.00664432 0 0 Z " fill="#6A43B5" transform="translate(31.56640625,0.83203125)"/>
<path d="M0 0 C2.33944736 0.28730055 4.6739143 0.61936779 7 1 C7.02465392 5.53897705 7.04283789 10.07791543 7.05493164 14.61694336 C7.0599714 16.16219766 7.0668032 17.70744716 7.07543945 19.25268555 C7.08752076 21.46925029 7.09323173 23.68575218 7.09765625 25.90234375 C7.10281754 26.5971434 7.10797882 27.29194305 7.11329651 28.00779724 C7.11349277 29.6722933 7.06189129 31.33665499 7 33 C6 34 6 34 3 34.125 C0 34 0 34 -1 33 C-1.1007812 30.63601532 -1.13973215 28.30188689 -1.1328125 25.9375 C-1.13376923 25.23101318 -1.13472595 24.52452637 -1.13571167 23.79663086 C-1.13639333 22.30029207 -1.13454005 20.80395033 -1.13037109 19.30761719 C-1.12502257 17.00969843 -1.13031651 14.71197514 -1.13671875 12.4140625 C-1.13605797 10.96354123 -1.1347768 9.51302009 -1.1328125 8.0625 C-1.13483673 7.3708374 -1.13686096 6.6791748 -1.13894653 5.96655273 C-1.11495224 1.11495224 -1.11495224 1.11495224 0 0 Z " fill="#FDFCFC" transform="translate(148,16)"/>
<path d="M0 0 C1.875 1.0625 1.875 1.0625 3 3 C3.4375 6.5 3.4375 6.5 3 10 C1.4375 12 1.4375 12 -1 13 C-4.625 12.875 -4.625 12.875 -8 12 C-10.31361802 8.52957297 -10.51020728 7.08165827 -10 3 C-7.09589708 -0.35088799 -4.27607914 -0.54588244 0 0 Z " fill="#F5F0F9" transform="translate(49,22)"/>
<path d="M0 0 C3 2 3 2 3.8125 4.875 C4 8 4 8 3.5 10.3125 C2 12 2 12 -1.375 13 C-5 13 -5 13 -7.4375 11.4375 C-9.42236225 8.34111489 -9.53852618 6.61581862 -9 3 C-6.78229215 -0.69617975 -4.0271794 -0.41949785 0 0 Z " fill="#F7F3FA" transform="translate(29,22)"/>
<path d="M0 0 C1.875 1.0625 1.875 1.0625 3 3 C3.36841966 6.43858351 3.58367385 8.90131981 1.9375 12 C-1.19442656 13.61647822 -3.67185286 12.78665296 -7 12 C-9 10 -9 10 -9.3125 6.5625 C-9 3 -9 3 -7.875 1.0625 C-5.11019567 -0.50422245 -3.11811483 -0.38976435 0 0 Z " fill="#F8F3FB" transform="translate(68,22)"/>
<path d="M0 0 C2.33944736 0.28730055 4.6739143 0.61936779 7 1 C7.02465392 5.53897705 7.04283789 10.07791543 7.05493164 14.61694336 C7.0599714 16.16219766 7.0668032 17.70744716 7.07543945 19.25268555 C7.08752076 21.46925029 7.09323173 23.68575218 7.09765625 25.90234375 C7.10281754 26.5971434 7.10797882 27.29194305 7.11329651 28.00779724 C7.11349277 29.6722933 7.06189129 31.33665499 7 33 C6 34 6 34 3 34.125 C0 34 0 34 -1 33 C-1.1007812 30.63601532 -1.13973215 28.30188689 -1.1328125 25.9375 C-1.13376923 25.23101318 -1.13472595 24.52452637 -1.13571167 23.79663086 C-1.13639333 22.30029207 -1.13454005 20.80395033 -1.13037109 19.30761719 C-1.12502257 17.00969843 -1.13031651 14.71197514 -1.13671875 12.4140625 C-1.13605797 10.96354123 -1.1347768 9.51302009 -1.1328125 8.0625 C-1.13483673 7.3708374 -1.13686096 6.6791748 -1.13894653 5.96655273 C-1.11495224 1.11495224 -1.11495224 1.11495224 0 0 Z M0 2 C0 12.23 0 22.46 0 33 C1.65 32.67 3.3 32.34 5 32 C5 22.1 5 12.2 5 2 C3.35 2 1.7 2 0 2 Z " fill="#BDBCBC" transform="translate(148,16)"/>
<path d="M0 0 C3.7494792 3.50757732 4.92984427 5.40746493 5.16113281 10.65771484 C5.18126126 12.1753868 5.19483572 13.69315471 5.203125 15.2109375 C5.20882507 16.01608795 5.21452515 16.8212384 5.22039795 17.65078735 C5.22983936 19.35376678 5.23637852 21.0567644 5.24023438 22.75976562 C5.24993801 25.35839873 5.28096784 27.95624003 5.3125 30.5546875 C5.31903067 32.21093281 5.32428089 33.86718377 5.328125 35.5234375 C5.3404718 36.29754974 5.3528186 37.07166199 5.36553955 37.86923218 C5.3467698 42.4392884 4.76109639 45.32309441 2 49 C1.505 47.515 1.505 47.515 1 46 C1.66 46 2.32 46 3 46 C2.90661089 40.33970876 2.80055052 34.67985269 2.68261719 29.02001953 C2.64427832 27.09365386 2.60943418 25.1672154 2.578125 23.24072266 C2.53258055 20.47532082 2.47456963 17.71042231 2.4140625 14.9453125 C2.39673569 13.6483696 2.39673569 13.6483696 2.37905884 12.32522583 C2.47337842 7.68217152 2.47337842 7.68217152 0 4 C0 2.68 0 1.36 0 0 Z " fill="#423283" transform="translate(85,3)"/>
<path d="M0 0 C1.99954746 -0.04254356 4.00041636 -0.04080783 6 0 C7.87824891 1.87824891 7.39102397 5.03935276 7.5625 7.5625 C7.64628906 8.76003906 7.73007813 9.95757812 7.81640625 11.19140625 C7.87699219 12.11824219 7.93757812 13.04507812 8 14 C8.84304687 12.77216797 8.84304687 12.77216797 9.703125 11.51953125 C12 9 12 9 14.359375 8.51171875 C15.54273438 8.59873047 15.54273438 8.59873047 16.75 8.6875 C17.94882813 8.75517578 17.94882813 8.75517578 19.171875 8.82421875 C19.77515625 8.88222656 20.3784375 8.94023437 21 9 C20.67 9.66 20.34 10.32 20 11 C19.154375 10.835 18.30875 10.67 17.4375 10.5 C12.68252885 11.19163217 11.29712035 13.589092 8.41796875 17.25 C7.95003906 17.8275 7.48210937 18.405 7 19 C6.67 19 6.34 19 6 19 C5.67 13.39 5.34 7.78 5 2 C3.35 1.67 1.7 1.34 0 1 C0 0.67 0 0.34 0 0 Z " fill="#AEABAC" transform="translate(158,16)"/>
<path d="M0 0 C0.69738281 0.01804688 1.39476562 0.03609375 2.11328125 0.0546875 C3.82611539 0.10161446 5.53823824 0.17335395 7.25 0.25 C7.25 0.91 7.25 1.57 7.25 2.25 C6.29738281 2.31058594 5.34476563 2.37117187 4.36328125 2.43359375 C3.10902344 2.51738281 1.85476562 2.60117188 0.5625 2.6875 C-0.67886719 2.76871094 -1.92023437 2.84992187 -3.19921875 2.93359375 C-6.13180337 3.19491317 -8.88441617 3.59798379 -11.75 4.25 C-8.36399708 -0.18322032 -5.23938601 -0.25751236 0 0 Z " fill="#7256B7" transform="translate(15.75,1.75)"/>
<path d="M0 0 C0.33 0 0.66 0 1 0 C1.02888514 3.14581423 1.04675923 6.29159469 1.0625 9.4375 C1.07087891 10.33533203 1.07925781 11.23316406 1.08789062 12.15820312 C1.09111328 13.01220703 1.09433594 13.86621094 1.09765625 14.74609375 C1.10289307 15.53685303 1.10812988 16.3276123 1.11352539 17.14233398 C1 19 1 19 0 20 C-5.52941176 20.23529412 -5.52941176 20.23529412 -8 19 C-8 18.34 -8 17.68 -8 17 C-5.36 17.33 -2.72 17.66 0 18 C0 12.06 0 6.12 0 0 Z " fill="#919191" transform="translate(144,30)"/>
<path d="M0 0 C0.33 0.66 0.66 1.32 1 2 C1.66 2 2.32 2 3 2 C3 2.66 3 3.32 3 4 C2.01 4 1.02 4 0 4 C0 4.99 0 5.98 0 7 C-1.98 7 -3.96 7 -6 7 C-6 6.01 -6 5.02 -6 4 C-3 1.8125 -3 1.8125 0 0 Z " fill="#F7F5F6" transform="translate(131,26)"/>
<path d="M0 0 C2.6015625 0.0234375 2.6015625 0.0234375 5.625 0.375 C6.62789062 0.48585938 7.63078125 0.59671875 8.6640625 0.7109375 C9.82035156 0.85402344 9.82035156 0.85402344 11 1 C7.51852477 3.32098349 6.05234873 3 2 3 C-0.41121859 4.95633975 -0.41121859 4.95633975 -0.125 8.625 C-0.08375 9.73875 -0.0425 10.8525 0 12 C-0.99 12.495 -0.99 12.495 -2 13 C-2.05391993 11.20866022 -2.09275571 9.41686101 -2.125 7.625 C-2.14820312 6.62726562 -2.17140625 5.62953125 -2.1953125 4.6015625 C-2 2 -2 2 0 0 Z " fill="#8466D0" transform="translate(21,20)"/>
<path d="M0 0 C0.33 0 0.66 0 1 0 C1.02687279 1.81242052 1.04633715 3.62495233 1.0625 5.4375 C1.07410156 6.44683594 1.08570313 7.45617188 1.09765625 8.49609375 C1 11 1 11 0 12 C-1.99958364 12.04080783 -4.00045254 12.04254356 -6 12 C-3 10 -3 10 -1 10 C-0.67 6.7 -0.34 3.4 0 0 Z " fill="#B8B7B8" transform="translate(154,38)"/>
<path d="M0 0 C0.33 0 0.66 0 1 0 C1.06058594 0.71027344 1.12117187 1.42054687 1.18359375 2.15234375 C1.26738281 3.07144531 1.35117188 3.99054687 1.4375 4.9375 C1.51871094 5.85402344 1.59992188 6.77054688 1.68359375 7.71484375 C1.76044976 9.96159732 1.76044976 9.96159732 3 11 C3.04080783 12.99958364 3.04254356 15.00045254 3 17 C1.51171875 15.94921875 1.51171875 15.94921875 0 14 C-0.29296875 10.64453125 -0.29296875 10.64453125 -0.1875 6.8125 C-0.16042969 5.54019531 -0.13335937 4.26789062 -0.10546875 2.95703125 C-0.07066406 1.98121094 -0.03585938 1.00539063 0 0 Z " fill="#B0AFAF" transform="translate(228,30)"/>
<path d="M0 0 C1.32 0 2.64 0 4 0 C4 0.66 4 1.32 4 2 C5.6396875 1.443125 5.6396875 1.443125 7.3125 0.875 C8.529375 0.58625 9.74625 0.2975 11 0 C11.99 0.66 12.98 1.32 14 2 C12.34233202 3.65766798 10.39653595 3.21049503 8.125 3.25 C7.24070312 3.27578125 6.35640625 3.3015625 5.4453125 3.328125 C2.59035628 2.94503183 1.76004103 2.21462117 0 0 Z " fill="#C9C8C8" transform="translate(256,47)"/>
<path d="M0 0 C2.64 0 5.28 0 8 0 C7.125 4.75 7.125 4.75 6 7 C5.34 7 4.68 7 4 7 C4.33 5.68 4.66 4.36 5 3 C5.66 3 6.32 3 7 3 C7 2.34 7 1.68 7 1 C4.69 1.66 2.38 2.32 0 3 C0 2.01 0 1.02 0 0 Z " fill="#C6C5C5" transform="translate(290,41)"/>
<path d="M0 0 C0.33 0 0.66 0 1 0 C1 2.64 1 5.28 1 8 C0.01 8.33 -0.98 8.66 -2 9 C-2.33 9.66 -2.66 10.32 -3 11 C-5.97 10.505 -5.97 10.505 -9 10 C-8.67 9.34 -8.34 8.68 -8 8 C-7.21625 8.04125 -6.4325 8.0825 -5.625 8.125 C-2.83883881 8.28728734 -2.83883881 8.28728734 -1 6 C-0.60235737 4.01178687 -0.26224651 2.01055661 0 0 Z " fill="#9176D1" transform="translate(71,26)"/>
<path d="M0 0 C0 0.66 0 1.32 0 2 C-3.46153846 5 -3.46153846 5 -6 5 C-6.33 5.99 -6.66 6.98 -7 8 C-6.6875 5.125 -6.6875 5.125 -6 2 C-3 0 -3 0 0 0 Z " fill="#B4B2B3" transform="translate(131,25)"/>
<path d="M0 0 C2 3 2 3 1.625 6.1875 C1.41875 7.115625 1.2125 8.04375 1 9 C0.01 9.33 -0.98 9.66 -2 10 C-1.34 6.7 -0.68 3.4 0 0 Z " fill="#EEE5F9" transform="translate(31,24)"/>
<path d="M0 0 C2.0625 0.4375 2.0625 0.4375 4 1 C1.03 3.475 1.03 3.475 -2 6 C-1.125 1.125 -1.125 1.125 0 0 Z " fill="#7656BF" transform="translate(42,55)"/>
<path d="M0 0 C2.64 0.33 5.28 0.66 8 1 C8 1.66 8 2.32 8 3 C2.25 3.125 2.25 3.125 0 2 C0 1.34 0 0.68 0 0 Z " fill="#A89DA0" transform="translate(136,47)"/>
</svg>
